<?xml version="1.0" encoding="UTF-8" standalone="no"?>
<!-- Created with Inkscape (http://www.inkscape.org/) -->

<svg
   xmlns:dc="http://purl.org/dc/elements/1.1/"
   xmlns:cc="http://creativecommons.org/ns#"
   xmlns:rdf="http://www.w3.org/1999/02/22-rdf-syntax-ns#"
   xmlns:svg="http://www.w3.org/2000/svg"
   xmlns="http://www.w3.org/2000/svg"
   xmlns:sodipodi="http://sodipodi.sourceforge.net/DTD/sodipodi-0.dtd"
   xmlns:inkscape="http://www.inkscape.org/namespaces/inkscape"
   version="1.1"
   id="svg93713"
   xml:space="preserve"
   width="1066.6667"
   height="1066.6667"
   viewBox="0 0 1066.6667 1066.6667"
   sodipodi:docname="strawberry-clip-art-4-publicdomainvectors.org.svg"
   inkscape:version="0.92.4 (5da689c313, 2019-01-14)"><metadata
     id="metadata93719"><rdf:RDF><cc:Work
         rdf:about=""><dc:format>image/svg+xml</dc:format><dc:type
           rdf:resource="http://purl.org/dc/dcmitype/StillImage" /><dc:title></dc:title></cc:Work></rdf:RDF></metadata><defs
     id="defs93717"><clipPath
       clipPathUnits="userSpaceOnUse"
       id="clipPath93729"><path
         d="M 0,800 H 800 V 0 H 0 Z"
         id="path93727"
         inkscape:connector-curvature="0" /></clipPath></defs><sodipodi:namedview
     pagecolor="#ffffff"
     bordercolor="#666666"
     borderopacity="1"
     objecttolerance="10"
     gridtolerance="10"
     guidetolerance="10"
     inkscape:pageopacity="0"
     inkscape:pageshadow="2"
     inkscape:window-width="797"
     inkscape:window-height="480"
     id="namedview93715"
     showgrid="false"
     inkscape:zoom="0.22124998"
     inkscape:cx="533.33337"
     inkscape:cy="533.33337"
     inkscape:window-x="0"
     inkscape:window-y="0"
     inkscape:window-maximized="0"
     inkscape:current-layer="g93721" /><g
     id="g93721"
     inkscape:groupmode="layer"
     inkscape:label="strawberry-clip-art-4-publicdomainvectors.org"
     transform="matrix(1.3333333,0,0,-1.3333333,0,1066.6667)"><g
       id="g93723"><g
         id="g93725"
         clip-path="url(#clipPath93729)"><path
           d="m 386.003,104.451 c 117.009,0 212.438,15.307 212.438,34.078 0,18.774 -95.429,34.084 -212.438,34.084 -117.008,0 -212.44,-15.31 -212.44,-34.084 0,-18.771 95.432,-34.078 212.44,-34.078"
           style="fill:#e6e6e6;fill-opacity:1;fill-rule:evenodd;stroke:none"
           id="path93731"
           inkscape:connector-curvature="0" /><path
           d="m 515.375,601.416 c 37.895,37.177 65.049,80.887 69.24,138.568 0.938,12.898 18.836,3.939 17.604,-6.944 -6.842,-60.254 -38.254,-105.56 -74.471,-147.945 -4.121,5.44 -8.248,10.881 -12.373,16.321"
           style="fill:#5fa617;fill-opacity:1;fill-rule:evenodd;stroke:none"
           id="path93733"
           inkscape:connector-curvature="0" /><path
           d="m 384.237,651.868 c -55.522,10.359 -61.49,39.44 -51.82,74.424 26.225,-40.485 62.559,-62.196 104.247,-73.952 -1.43,31.272 0.008,61.806 44.129,81.547 -0.824,-12.128 10.6,-68.025 -6.273,-106.826 24.572,32.971 48.337,42.349 72.511,63.524 -7.4,-32.113 3.836,-65.773 -22.195,-96.34 35.662,24.958 72.818,5.352 109.223,8.028 -14.09,-33.735 -39.868,-51.435 -67.143,-67.071 33.768,-18.711 69.418,-27.829 110.92,-6.973 -31.375,-56.866 -86.52,-59.205 -140.881,-63.331 -50.906,62.325 -101.812,124.648 -152.718,186.97"
           style="fill:#7ecc2f;fill-opacity:1;fill-rule:evenodd;stroke:none"
           id="path93735"
           inkscape:connector-curvature="0" /><path
           d="m 339.14,137.16 c -68.397,-12.222 -158.596,46.166 -174.663,113.766 -28.382,119.425 -23.569,274.44 61.308,363.122 67.752,70.782 212.438,62.457 293.84,7.926 C 605.617,564.365 676.865,433.05 640.752,336.051 598.734,223.189 457.688,158.346 339.14,137.16"
           style="fill:#de0000;fill-opacity:1;fill-rule:evenodd;stroke:none"
           id="path93737"
           inkscape:connector-curvature="0" /><path
           d="m 165.256,250.449 c -28.386,119.428 -23.569,274.444 61.311,363.125 67.746,70.782 212.435,62.458 293.841,7.926 39.877,-26.715 76.578,-69.287 100.875,-116.932 -15.683,-19.484 -40.01,-31.627 -70.002,-13.384 -11.168,6.794 -37.355,6.899 -49.597,-2.563 -27.347,-21.133 -40.405,23.324 -37.245,43.344 8.413,53.336 -32.581,33.025 -42.683,63.468 -21.104,63.573 -33.576,34.437 -59.157,49.397 -48.982,28.649 -95.791,-10.47 -107.075,-37.064 -10.453,-24.641 13.391,-35.534 1.573,-45.249 -19.33,-15.885 -23.507,-35.901 -38.064,-42.996 -33.635,-16.385 42.175,-73.249 -12.867,-91.868 l 4.63,-3.332 c -2.48,-6.958 -33.781,-14.079 -34.494,-16.908 -13.24,-52.595 29.835,-65.048 32.878,-87.22 5.215,-38.011 -10.066,-56.882 -43.924,-69.744"
           style="fill:#f23535;fill-opacity:1;fill-rule:evenodd;stroke:none"
           id="path93739"
           inkscape:connector-curvature="0" /><path
           d="m 237.884,160.551 c -11.199,6.818 -21.748,14.773 -31.199,23.592 8.902,10.097 20.987,25.32 12.611,49.906 -12.179,35.789 -23.613,41.726 -18.799,67.974 4.813,26.247 31.838,78.876 30.855,82.903 -0.984,4.027 3.609,36.333 3.445,41.367 -0.168,5.034 11.741,24.952 16.591,22.827 4.857,-2.124 32.523,23.364 21.857,44.594 -10.662,21.23 -2.377,51.414 23.057,64.211 25.435,12.794 68.894,28.941 96.669,36.529 33.467,9.146 17.791,-16.797 42.033,-30.531 22.318,-12.649 44.062,-22.706 33.266,-43.046 -10.794,-20.342 -7.012,-62.94 29.796,-53.015 36.815,9.929 50.219,25.476 58.375,-12.296 8.153,-37.771 7.993,-69.448 43.58,-58.49 35.588,10.96 31.469,-26.145 22.155,-57.834 -9.321,-31.691 -17.262,-38.678 -39.379,-54.199 -22.117,-15.523 -50.623,-24.25 -64.018,-31.426 -20.256,-10.844 -38.824,-49.787 -57.017,-53.824 -22.176,-4.924 -28.963,-33.924 -68.528,-26.078 -39.567,7.846 -26.392,-18.979 -45.317,-16.307 -18.923,2.67 -42.489,6.102 -52.807,-1.125 -10.321,-7.228 -38.452,21.301 -53.269,7.498 -1.309,-1.222 -2.626,-2.295 -3.957,-3.23"
           style="fill:#c40000;fill-opacity:1;fill-rule:evenodd;stroke:none"
           id="path93741"
           inkscape:connector-curvature="0" /><path
           d="m 457.172,432.767 c 6.141,-3.735 6.104,-15.011 -0.084,-25.18 -6.186,-10.172 -16.182,-15.39 -22.318,-11.653 -6.141,3.734 -6.108,15.008 0.08,25.178 6.189,10.171 16.181,15.389 22.322,11.655"
           style="fill:#a10000;fill-opacity:1;fill-rule:evenodd;stroke:none"
           id="path93743"
           inkscape:connector-curvature="0" /><path
           d="m 455.068,430.549 c 4.854,-2.952 4.825,-11.865 -0.065,-19.904 -4.886,-8.042 -12.79,-12.164 -17.644,-9.212 -4.853,2.951 -4.824,11.863 0.066,19.904 4.889,8.039 12.79,12.163 17.643,9.212"
           style="fill:#ff9933;fill-opacity:1;fill-rule:evenodd;stroke:none"
           id="path93745"
           inkscape:connector-curvature="0" /><path
           d="m 451.535,425.364 c 1.83,-1.114 1.822,-4.475 -0.025,-7.51 -1.843,-3.031 -4.824,-4.587 -6.656,-3.474 -1.833,1.114 -1.819,4.475 0.025,7.51 1.844,3.033 4.824,4.588 6.656,3.474"
           style="fill:#ffc891;fill-opacity:1;fill-rule:evenodd;stroke:none"
           id="path93747"
           inkscape:connector-curvature="0" /><path
           d="m 453.745,454.685 c -38.057,-17.811 -43.4,-46.559 -35.874,-60.22 7.527,-13.659 30.738,-16.106 50.204,3.336 -18.302,-10.249 -33.901,-5.401 -40.438,6.532 -6.535,11.933 -0.299,34.489 26.108,50.352"
           style="fill:#ff9c9c;fill-opacity:1;fill-rule:evenodd;stroke:none"
           id="path93749"
           inkscape:connector-curvature="0" /><path
           d="m 361.655,476.747 c 5.523,-3.357 4.982,-14.327 -1.207,-24.498 -6.185,-10.17 -15.676,-15.693 -21.195,-12.335 -5.52,3.356 -4.978,14.322 1.207,24.494 6.185,10.172 15.68,15.695 21.195,12.339"
           style="fill:#a10000;fill-opacity:1;fill-rule:evenodd;stroke:none"
           id="path93751"
           inkscape:connector-curvature="0" /><path
           d="m 359.611,474.494 c 4.363,-2.653 3.935,-11.324 -0.955,-19.363 -4.89,-8.041 -12.392,-12.406 -16.755,-9.753 -4.363,2.653 -3.939,11.324 0.954,19.363 4.891,8.041 12.392,12.406 16.756,9.753"
           style="fill:#ff9933;fill-opacity:1;fill-rule:evenodd;stroke:none"
           id="path93753"
           inkscape:connector-curvature="0" /><path
           d="m 356.103,469.293 c 1.646,-1 1.485,-4.272 -0.358,-7.306 -1.844,-3.032 -4.675,-4.678 -6.321,-3.677 -1.645,1 -1.485,4.271 0.359,7.305 1.843,3.032 4.674,4.68 6.32,3.678"
           style="fill:#ffc891;fill-opacity:1;fill-rule:evenodd;stroke:none"
           id="path93755"
           inkscape:connector-curvature="0" /><path
           d="m 359.468,497.913 c -36.049,-19.034 -42.288,-47.237 -35.932,-60.186 6.357,-12.951 27.747,-14.287 46.649,5.499 -17.41,-10.792 -31.642,-6.776 -37.161,4.537 -5.516,11.314 1.273,33.534 26.444,50.15"
           style="fill:#ff9c9c;fill-opacity:1;fill-rule:evenodd;stroke:none"
           id="path93757"
           inkscape:connector-curvature="0" /><path
           d="m 375.569,403.598 c 5.698,-2.873 5.969,-13.82 0.603,-24.449 -5.362,-10.628 -14.33,-16.915 -20.025,-14.042 -5.695,2.875 -5.965,13.823 -0.6,24.45 5.362,10.629 14.327,16.916 20.022,14.041"
           style="fill:#a10000;fill-opacity:1;fill-rule:evenodd;stroke:none"
           id="path93759"
           inkscape:connector-curvature="0" /><path
           d="m 373.71,401.188 c 4.507,-2.272 4.719,-10.923 0.48,-19.327 -4.239,-8.401 -11.328,-13.37 -15.83,-11.097 -4.503,2.271 -4.715,10.924 -0.476,19.327 4.24,8.399 11.328,13.37 15.826,11.097"
           style="fill:#ff9933;fill-opacity:1;fill-rule:evenodd;stroke:none"
           id="path93761"
           inkscape:connector-curvature="0" /><path
           d="m 370.631,395.725 c 1.701,-0.858 1.781,-4.122 0.183,-7.291 -1.602,-3.169 -4.276,-5.044 -5.973,-4.188 -1.701,0.858 -1.781,4.122 -0.179,7.291 1.598,3.169 4.272,5.044 5.969,4.188"
           style="fill:#ffc891;fill-opacity:1;fill-rule:evenodd;stroke:none"
           id="path93763"
           inkscape:connector-curvature="0" /><path
           d="m 371.86,424.453 c -34.202,-21.941 -38.295,-50.498 -31.068,-62.834 7.224,-12.34 28.442,-11.875 45.654,9.377 -16.4,-12.185 -30.745,-9.389 -37.022,1.394 -6.276,10.781 -1.199,33.435 22.436,52.063"
           style="fill:#ff9c9c;fill-opacity:1;fill-rule:evenodd;stroke:none"
           id="path93765"
           inkscape:connector-curvature="0" /><path
           d="m 393.834,322.516 c 5.392,-3.28 5.359,-13.18 -0.077,-22.112 -5.431,-8.931 -14.209,-13.511 -19.6,-10.234 -5.391,3.277 -5.362,13.18 0.073,22.113 5.435,8.932 14.209,13.512 19.604,10.233"
           style="fill:#a10000;fill-opacity:1;fill-rule:evenodd;stroke:none"
           id="path93767"
           inkscape:connector-curvature="0" /><path
           d="m 391.984,320.568 c 4.264,-2.593 4.235,-10.418 -0.059,-17.478 -4.294,-7.061 -11.229,-10.682 -15.493,-8.092 -4.261,2.594 -4.236,10.42 0.058,17.481 4.294,7.06 11.233,10.681 15.494,8.089"
           style="fill:#ff9933;fill-opacity:1;fill-rule:evenodd;stroke:none"
           id="path93769"
           inkscape:connector-curvature="0" /><path
           d="m 388.882,316.018 c 1.609,-0.979 1.598,-3.934 -0.022,-6.596 -1.62,-2.664 -4.239,-4.029 -5.845,-3.053 -1.609,0.979 -1.601,3.932 0.022,6.596 1.617,2.662 4.236,4.029 5.845,3.053"
           style="fill:#ffc891;fill-opacity:1;fill-rule:evenodd;stroke:none"
           id="path93771"
           inkscape:connector-curvature="0" /><path
           d="m 390.821,341.764 c -33.42,-15.639 -38.112,-40.885 -31.503,-52.881 6.609,-11.996 26.993,-14.147 44.084,2.926 -16.067,-8.996 -29.768,-4.741 -35.507,5.74 -5.739,10.476 -0.263,30.285 22.926,44.215"
           style="fill:#ff9c9c;fill-opacity:1;fill-rule:evenodd;stroke:none"
           id="path93773"
           inkscape:connector-curvature="0" /><path
           d="m 299.638,361.158 c 4.813,-2.929 5.358,-12.123 1.211,-20.531 -4.148,-8.41 -11.415,-12.85 -16.236,-9.92 -4.814,2.93 -5.359,12.123 -1.211,20.531 4.148,8.41 11.415,12.85 16.236,9.92"
           style="fill:#a10000;fill-opacity:1;fill-rule:evenodd;stroke:none"
           id="path93775"
           inkscape:connector-curvature="0" /><path
           d="m 298.164,359.309 c 3.808,-2.315 4.239,-9.58 0.958,-16.229 -3.281,-6.644 -9.023,-10.156 -12.834,-7.84 -3.804,2.317 -4.236,9.584 -0.958,16.229 3.28,6.646 9.026,10.158 12.834,7.84"
           style="fill:#ff9933;fill-opacity:1;fill-rule:evenodd;stroke:none"
           id="path93777"
           inkscape:connector-curvature="0" /><path
           d="m 295.761,355.02 c 1.437,-0.875 1.602,-3.616 0.362,-6.124 -1.236,-2.509 -3.405,-3.833 -4.839,-2.958 -1.441,0.871 -1.602,3.615 -0.362,6.123 1.236,2.505 3.405,3.83 4.839,2.959"
           style="fill:#ffc891;fill-opacity:1;fill-rule:evenodd;stroke:none"
           id="path93779"
           inkscape:connector-curvature="0" /><path
           d="m 295.944,378.964 c -27.783,-15.234 -30.354,-38.773 -23.99,-49.769 6.36,-10.996 23.983,-12.556 37.669,3.66 -13.273,-8.701 -25.277,-5.037 -30.808,4.567 -5.533,9.607 -1.971,28.115 17.129,41.542"
           style="fill:#ff9c9c;fill-opacity:1;fill-rule:evenodd;stroke:none"
           id="path93781"
           inkscape:connector-curvature="0" /><path
           d="m 287.129,432.324 c 6.108,-1.845 8.27,-12.578 4.828,-23.975 -3.438,-11.397 -11.185,-19.14 -17.289,-17.296 -6.105,1.843 -8.27,12.578 -4.832,23.974 3.446,11.398 11.185,19.141 17.293,17.297"
           style="fill:#a10000;fill-opacity:1;fill-rule:evenodd;stroke:none"
           id="path93783"
           inkscape:connector-curvature="0" /><path
           d="m 285.717,429.629 c 4.828,-1.458 6.54,-9.943 3.819,-18.952 -2.722,-9.008 -8.841,-15.129 -13.668,-13.672 -4.828,1.458 -6.536,9.941 -3.815,18.952 2.718,9.008 8.836,15.129 13.664,13.672"
           style="fill:#ff9933;fill-opacity:1;fill-rule:evenodd;stroke:none"
           id="path93785"
           inkscape:connector-curvature="0" /><path
           d="m 283.629,423.714 c 1.825,-0.548 2.469,-3.75 1.441,-7.151 -1.028,-3.397 -3.332,-5.707 -5.157,-5.156 -1.818,0.548 -2.465,3.75 -1.437,7.149 1.024,3.399 3.335,5.707 5.153,5.158"
           style="fill:#ffc891;fill-opacity:1;fill-rule:evenodd;stroke:none"
           id="path93787"
           inkscape:connector-curvature="0" /><path
           d="m 279.858,452.222 c -29.879,-27.536 -28.961,-56.369 -19.707,-67.269 9.25,-10.899 30.065,-6.767 43.335,17.146 -14.038,-14.843 -28.653,-14.573 -36.7,-5.04 -8.054,9.531 -6.979,32.723 13.072,55.163"
           style="fill:#ff9c9c;fill-opacity:1;fill-rule:evenodd;stroke:none"
           id="path93789"
           inkscape:connector-curvature="0" /><path
           d="m 313.69,529.098 c 5.026,-3.056 4.536,-13.039 -1.097,-22.297 -5.633,-9.257 -14.272,-14.284 -19.297,-11.229 -5.022,3.056 -4.528,13.039 1.1,22.297 5.63,9.257 14.269,14.284 19.294,11.229"
           style="fill:#a10000;fill-opacity:1;fill-rule:evenodd;stroke:none"
           id="path93791"
           inkscape:connector-curvature="0" /><path
           d="m 311.825,527.047 c 3.972,-2.413 3.584,-10.307 -0.867,-17.623 -4.451,-7.32 -11.28,-11.293 -15.248,-8.877 -3.972,2.415 -3.585,10.307 0.863,17.624 4.455,7.318 11.283,11.292 15.252,8.876"
           style="fill:#ff9933;fill-opacity:1;fill-rule:evenodd;stroke:none"
           id="path93793"
           inkscape:connector-curvature="0" /><path
           d="m 308.636,522.314 c 1.499,-0.911 1.353,-3.887 -0.33,-6.649 -1.675,-2.762 -4.253,-4.259 -5.753,-3.349 -1.496,0.912 -1.349,3.888 0.329,6.65 1.679,2.76 4.254,4.26 5.754,3.348"
           style="fill:#ffc891;fill-opacity:1;fill-rule:evenodd;stroke:none"
           id="path93795"
           inkscape:connector-curvature="0" /><path
           d="m 311.701,548.363 c -32.816,-17.324 -38.493,-42.994 -32.706,-54.78 5.786,-11.787 25.252,-13.005 42.457,5.005 -15.845,-9.822 -28.8,-6.167 -33.822,4.131 -5.022,10.296 1.16,30.52 24.071,45.644"
           style="fill:#ff9c9c;fill-opacity:1;fill-rule:evenodd;stroke:none"
           id="path93797"
           inkscape:connector-curvature="0" /><path
           d="m 254.146,518.427 c 5.734,-1.735 7.768,-11.822 4.535,-22.531 -3.233,-10.711 -10.508,-17.988 -16.247,-16.256 -5.739,1.732 -7.772,11.821 -4.539,22.531 3.233,10.711 10.508,17.987 16.251,16.256"
           style="fill:#a10000;fill-opacity:1;fill-rule:evenodd;stroke:none"
           id="path93799"
           inkscape:connector-curvature="0" /><path
           d="m 252.818,515.894 c 4.539,-1.371 6.141,-9.345 3.588,-17.811 -2.557,-8.467 -8.31,-14.219 -12.845,-12.849 -4.536,1.37 -6.145,9.343 -3.585,17.809 2.553,8.467 8.303,14.219 12.842,12.851"
           style="fill:#ff9933;fill-opacity:1;fill-rule:evenodd;stroke:none"
           id="path93801"
           inkscape:connector-curvature="0" /><path
           d="m 250.854,510.336 c 1.711,-0.518 2.318,-3.525 1.353,-6.721 -0.962,-3.194 -3.131,-5.364 -4.843,-4.846 -1.711,0.516 -2.319,3.524 -1.353,6.719 0.966,3.193 3.135,5.364 4.843,4.848"
           style="fill:#ffc891;fill-opacity:1;fill-rule:evenodd;stroke:none"
           id="path93803"
           inkscape:connector-curvature="0" /><path
           d="m 247.313,537.124 c -28.083,-25.875 -27.219,-52.973 -18.521,-63.215 8.693,-10.243 28.254,-6.359 40.723,16.113 -13.19,-13.95 -26.928,-13.694 -34.491,-4.739 -7.564,8.958 -6.555,30.753 12.289,51.841"
           style="fill:#ff9c9c;fill-opacity:1;fill-rule:evenodd;stroke:none"
           id="path93805"
           inkscape:connector-curvature="0" /><path
           d="m 241.725,571.843 c 2.962,-1.801 0.698,-10.944 -5.062,-20.414 -5.765,-9.474 -12.839,-15.69 -15.801,-13.888 -2.963,1.803 -0.699,10.943 5.062,20.416 5.764,9.474 12.838,15.689 15.801,13.886"
           style="fill:#a10000;fill-opacity:1;fill-rule:evenodd;stroke:none"
           id="path93807"
           inkscape:connector-curvature="0" /><path
           d="m 240.013,569.629 c 2.344,-1.425 0.552,-8.65 -4.002,-16.14 -4.553,-7.488 -10.146,-12.402 -12.49,-10.975 -2.345,1.424 -0.549,8.649 4.005,16.138 4.554,7.488 10.146,12.401 12.487,10.977"
           style="fill:#ff9933;fill-opacity:1;fill-rule:evenodd;stroke:none"
           id="path93809"
           inkscape:connector-curvature="0" /><path
           d="m 236.849,564.724 c 0.881,-0.536 0.208,-3.263 -1.511,-6.086 -1.719,-2.825 -3.829,-4.68 -4.711,-4.143 -0.885,0.538 -0.212,3.263 1.507,6.088 1.72,2.826 3.83,4.68 4.715,4.141"
           style="fill:#ffc891;fill-opacity:1;fill-rule:evenodd;stroke:none"
           id="path93811"
           inkscape:connector-curvature="0" /><path
           d="m 244.021,588.92 c -26.528,-22.009 -35.478,-46.364 -33.656,-55.933 1.825,-9.568 15.354,-6.927 30.979,12.701 -13.091,-11.949 -21.543,-11.126 -23.115,-2.761 -1.573,8.364 6.689,27.883 25.792,45.993"
           style="fill:#ff9c9c;fill-opacity:1;fill-rule:evenodd;stroke:none"
           id="path93813"
           inkscape:connector-curvature="0" /><path
           d="m 233.985,313.861 c 6.031,-0.545 10.914,-9.152 10.896,-19.224 -0.018,-10.076 -4.92,-17.801 -10.955,-17.26 -6.034,0.541 -10.914,9.15 -10.899,19.223 0.015,10.076 4.923,17.804 10.958,17.261"
           style="fill:#a10000;fill-opacity:1;fill-rule:evenodd;stroke:none"
           id="path93815"
           inkscape:connector-curvature="0" /><path
           d="m 233.437,311.381 c 4.769,-0.43 8.627,-7.235 8.617,-15.197 -0.015,-7.967 -3.892,-14.071 -8.661,-13.643 -4.77,0.432 -8.625,7.234 -8.614,15.197 0.011,7.963 3.888,14.073 8.658,13.643"
           style="fill:#ff9933;fill-opacity:1;fill-rule:evenodd;stroke:none"
           id="path93817"
           inkscape:connector-curvature="0" /><path
           d="m 233.158,306.104 c 1.8,-0.163 3.256,-2.729 3.248,-5.735 -0.007,-3.004 -1.47,-5.308 -3.266,-5.148 -1.799,0.166 -3.255,2.732 -3.251,5.736 0.007,3.002 1.47,5.309 3.269,5.147"
           style="fill:#ffc891;fill-opacity:1;fill-rule:evenodd;stroke:none"
           id="path93819"
           inkscape:connector-curvature="0" /><path
           d="m 221.985,329.283 c -19.575,-27.857 -10.9,-51.775 0.45,-59.365 11.345,-7.588 29.077,-0.746 34.589,21.379 -8.676,-14.678 -21.985,-16.836 -31.876,-10.19 -9.882,6.643 -15.219,26.176 -3.163,48.176"
           style="fill:#ff9c9c;fill-opacity:1;fill-rule:evenodd;stroke:none"
           id="path93821"
           inkscape:connector-curvature="0" /><path
           d="m 218.978,399.015 c 4.473,-1.293 5.545,-9.947 2.396,-19.328 -3.145,-9.382 -9.323,-15.939 -13.796,-14.648 -4.47,1.293 -5.541,9.946 -2.392,19.325 3.145,9.384 9.323,15.942 13.792,14.651"
           style="fill:#a10000;fill-opacity:1;fill-rule:evenodd;stroke:none"
           id="path93823"
           inkscape:connector-curvature="0" /><path
           d="m 217.79,396.774 c 3.533,-1.02 4.381,-7.861 1.894,-15.277 -2.487,-7.416 -7.373,-12.601 -10.907,-11.58 -3.533,1.022 -4.381,7.862 -1.894,15.279 2.487,7.416 7.373,12.601 10.907,11.578"
           style="fill:#ff9933;fill-opacity:1;fill-rule:evenodd;stroke:none"
           id="path93825"
           inkscape:connector-curvature="0" /><path
           d="m 215.931,391.896 c 1.332,-0.386 1.653,-2.966 0.714,-5.765 -0.94,-2.796 -2.784,-4.753 -4.115,-4.366 -1.331,0.383 -1.654,2.964 -0.717,5.763 0.94,2.796 2.783,4.753 4.118,4.368"
           style="fill:#ffc891;fill-opacity:1;fill-rule:evenodd;stroke:none"
           id="path93827"
           inkscape:connector-curvature="0" /><path
           d="m 214.553,414.941 c -23.72,-23.397 -24.495,-46.804 -18.131,-55.351 6.364,-8.549 22.128,-4.483 33.251,15.406 -11.24,-12.541 -22.147,-12.818 -27.68,-5.342 -5.535,7.476 -3.559,26.367 12.56,45.287"
           style="fill:#ff9c9c;fill-opacity:1;fill-rule:evenodd;stroke:none"
           id="path93829"
           inkscape:connector-curvature="0" /><path
           d="m 203.342,464.355 c 3.691,0.009 5.421,-7.825 3.863,-17.498 -1.562,-9.675 -5.823,-17.527 -9.51,-17.538 -3.694,-0.008 -5.421,7.826 -3.862,17.5 1.558,9.674 5.815,17.525 9.509,17.536"
           style="fill:#a10000;fill-opacity:1;fill-rule:evenodd;stroke:none"
           id="path93831"
           inkscape:connector-curvature="0" /><path
           d="m 202.618,461.927 c 2.919,0.009 4.287,-6.187 3.054,-13.833 -1.233,-7.648 -4.598,-13.853 -7.516,-13.861 -2.919,-0.008 -4.287,6.185 -3.054,13.831 1.232,7.648 4.597,13.853 7.516,13.863"
           style="fill:#ff9933;fill-opacity:1;fill-rule:evenodd;stroke:none"
           id="path93833"
           inkscape:connector-curvature="0" /><path
           d="m 201.63,456.835 c 1.101,0.002 1.617,-2.335 1.153,-5.219 -0.465,-2.886 -1.738,-5.226 -2.835,-5.228 -1.105,-0.004 -1.617,2.333 -1.152,5.216 0.464,2.887 1.733,5.228 2.834,5.231"
           style="fill:#ffc891;fill-opacity:1;fill-rule:evenodd;stroke:none"
           id="path93835"
           inkscape:connector-curvature="0" /><path
           d="m 198.207,478.105 c -16.532,-28.471 -14.784,-50.67 -8.852,-56.959 5.933,-6.287 18.076,1.848 24.931,23.576 -7.689,-14.86 -16.35,-18.104 -21.511,-12.595 -5.16,5.508 -5.497,23.794 5.432,45.978"
           style="fill:#ff9c9c;fill-opacity:1;fill-rule:evenodd;stroke:none"
           id="path93837"
           inkscape:connector-curvature="0" /><path
           d="m 189.912,321.703 c 4.06,0.432 6.774,-7.004 6.064,-16.605 -0.71,-9.602 -4.58,-17.741 -8.639,-18.176 -4.06,-0.432 -6.778,7.006 -6.065,16.607 0.71,9.604 4.58,17.741 8.64,18.174"
           style="fill:#a10000;fill-opacity:1;fill-rule:evenodd;stroke:none"
           id="path93839"
           inkscape:connector-curvature="0" /><path
           d="m 189.367,319.252 c 3.207,0.342 5.358,-5.533 4.795,-13.125 -0.563,-7.592 -3.621,-14.022 -6.829,-14.361 -3.208,-0.344 -5.358,5.529 -4.795,13.123 0.563,7.59 3.621,14.021 6.829,14.363"
           style="fill:#ff9933;fill-opacity:1;fill-rule:evenodd;stroke:none"
           id="path93841"
           inkscape:connector-curvature="0" /><path
           d="m 188.807,314.18 c 1.214,0.129 2.023,-2.09 1.811,-4.953 -0.209,-2.862 -1.365,-5.289 -2.579,-5.418 -1.207,-0.131 -2.019,2.087 -1.807,4.949 0.212,2.865 1.368,5.291 2.575,5.422"
           style="fill:#ffc891;fill-opacity:1;fill-rule:evenodd;stroke:none"
           id="path93843"
           inkscape:connector-curvature="0" /><path
           d="m 182.831,334.51 c -15.227,-29.633 -10.995,-51.059 -3.819,-56.504 7.18,-5.443 19.696,3.869 24.978,25.826 -6.913,-15.359 -16.105,-19.51 -22.355,-14.736 -6.251,4.773 -8.519,22.549 1.196,45.414"
           style="fill:#ff9c9c;fill-opacity:1;fill-rule:evenodd;stroke:none"
           id="path93845"
           inkscape:connector-curvature="0" /><path
           d="m 195.032,237.297 c 2.619,0.914 5.567,-3.58 6.584,-10.043 1.02,-6.463 -0.278,-12.443 -2.897,-13.361 -2.619,-0.914 -5.567,3.58 -6.584,10.046 -1.02,6.459 0.279,12.444 2.897,13.358"
           style="fill:#a10000;fill-opacity:1;fill-rule:evenodd;stroke:none"
           id="path93847"
           inkscape:connector-curvature="0" /><path
           d="m 195.054,235.592 c 2.071,0.724 4.4,-2.83 5.205,-7.936 0.804,-5.109 -0.223,-9.84 -2.294,-10.562 -2.069,-0.725 -4.4,2.83 -5.204,7.939 -0.805,5.11 0.223,9.836 2.293,10.559"
           style="fill:#ff9933;fill-opacity:1;fill-rule:evenodd;stroke:none"
           id="path93849"
           inkscape:connector-curvature="0" /><path
           d="m 195.471,232.15 c 0.783,0.276 1.661,-1.068 1.961,-2.994 0.307,-1.927 -0.081,-3.713 -0.864,-3.988 -0.779,-0.27 -1.66,1.068 -1.96,3 -0.307,1.924 0.08,3.709 0.863,3.982"
           style="fill:#ffc891;fill-opacity:1;fill-rule:evenodd;stroke:none"
           id="path93851"
           inkscape:connector-curvature="0" /><path
           d="m 188.368,244.674 c -5.486,-21.963 0.633,-35.481 6.225,-37.969 5.596,-2.494 12.428,5.611 12.524,20.951 -2.195,-11.228 -7.63,-15.398 -12.506,-13.211 -4.875,2.188 -9.129,13.598 -6.243,30.229"
           style="fill:#ff9c9c;fill-opacity:1;fill-rule:evenodd;stroke:none"
           id="path93853"
           inkscape:connector-curvature="0" /><path
           d="m 259.507,237.33 c 3.53,-1.533 4.748,-7.695 2.729,-13.764 -2.027,-6.068 -6.525,-9.744 -10.055,-8.207 -3.526,1.534 -4.743,7.696 -2.724,13.76 2.026,6.069 6.524,9.744 10.05,8.211"
           style="fill:#a10000;fill-opacity:1;fill-rule:evenodd;stroke:none"
           id="path93855"
           inkscape:connector-curvature="0" /><path
           d="m 258.688,235.943 c 2.787,-1.213 3.753,-6.082 2.151,-10.877 -1.599,-4.798 -5.157,-7.703 -7.944,-6.488 -2.788,1.211 -3.753,6.078 -2.155,10.877 1.598,4.795 5.157,7.703 7.948,6.488"
           style="fill:#ff9933;fill-opacity:1;fill-rule:evenodd;stroke:none"
           id="path93857"
           inkscape:connector-curvature="0" /><path
           d="m 257.459,232.82 c 1.054,-0.457 1.419,-2.297 0.816,-4.103 -0.604,-1.811 -1.95,-2.904 -3,-2.447 -1.049,0.457 -1.415,2.293 -0.812,4.103 0.604,1.811 1.947,2.904 2.996,2.447"
           style="fill:#ffc891;fill-opacity:1;fill-rule:evenodd;stroke:none"
           id="path93859"
           inkscape:connector-curvature="0" /><path
           d="m 255.363,249.023 c -17.362,-12.875 -16.916,-29.019 -11.598,-35.863 5.322,-6.842 17.374,-6.262 25.12,5.967 -8.163,-7.111 -16.619,-5.75 -21.246,0.234 -4.627,5.977 -3.939,18.815 7.724,29.662"
           style="fill:#ff9c9c;fill-opacity:1;fill-rule:evenodd;stroke:none"
           id="path93861"
           inkscape:connector-curvature="0" /><path
           d="m 233.714,190.752 c 3.428,-1.697 5.531,-6.408 4.697,-10.52 -0.834,-4.111 -4.287,-6.072 -7.718,-4.371 -3.423,1.698 -5.53,6.405 -4.696,10.516 0.834,4.111 4.29,6.072 7.717,4.375"
           style="fill:#a10000;fill-opacity:1;fill-rule:evenodd;stroke:none"
           id="path93863"
           inkscape:connector-curvature="0" /><path
           d="m 233.199,189.869 c 2.71,-1.342 4.37,-5.064 3.712,-8.312 -0.658,-3.252 -3.39,-4.799 -6.101,-3.457 -2.706,1.341 -4.371,5.066 -3.712,8.314 0.662,3.25 3.39,4.799 6.101,3.455"
           style="fill:#ff9933;fill-opacity:1;fill-rule:evenodd;stroke:none"
           id="path93865"
           inkscape:connector-curvature="0" /><path
           d="m 232.603,187.781 c 1.023,-0.504 1.653,-1.91 1.4,-3.138 -0.249,-1.221 -1.276,-1.807 -2.3,-1.301 -1.024,0.508 -1.65,1.912 -1.401,3.137 0.249,1.23 1.28,1.806 2.301,1.302"
           style="fill:#ffc891;fill-opacity:1;fill-rule:evenodd;stroke:none"
           id="path93867"
           inkscape:connector-curvature="0" /><path
           d="m 228.074,199.982 c -13.547,-6.589 -10.511,-18.484 -4.601,-24.359 5.907,-5.873 16.672,-7.414 21.653,0.275 -6.196,-3.873 -14.03,-1.5 -19.177,3.631 -5.142,5.133 -6.616,14.414 2.125,20.453"
           style="fill:#ff9c9c;fill-opacity:1;fill-rule:evenodd;stroke:none"
           id="path93869"
           inkscape:connector-curvature="0" /><path
           d="m 316.463,286.773 c 4.184,-2.111 4.381,-10.158 0.442,-17.962 -3.939,-7.813 -10.53,-12.428 -14.714,-10.319 -4.184,2.112 -4.382,10.158 -0.439,17.963 3.936,7.809 10.526,12.428 14.711,10.318"
           style="fill:#a10000;fill-opacity:1;fill-rule:evenodd;stroke:none"
           id="path93871"
           inkscape:connector-curvature="0" /><path
           d="m 315.099,284.998 c 3.306,-1.668 3.463,-8.023 0.351,-14.197 -3.117,-6.174 -8.322,-9.824 -11.632,-8.153 -3.31,1.67 -3.463,8.028 -0.347,14.198 3.112,6.17 8.318,9.824 11.628,8.152"
           style="fill:#ff9933;fill-opacity:1;fill-rule:evenodd;stroke:none"
           id="path93873"
           inkscape:connector-curvature="0" /><path
           d="m 312.834,280.986 c 1.251,-0.629 1.31,-3.027 0.132,-5.357 -1.174,-2.326 -3.138,-3.705 -4.385,-3.076 -1.248,0.633 -1.31,3.031 -0.136,5.357 1.178,2.33 3.142,3.705 4.389,3.076"
           style="fill:#ffc891;fill-opacity:1;fill-rule:evenodd;stroke:none"
           id="path93875"
           inkscape:connector-curvature="0" /><path
           d="m 313.734,302.094 c -25.127,-16.121 -28.134,-37.102 -22.823,-46.166 5.307,-9.063 20.896,-8.723 33.54,6.892 -12.048,-8.955 -22.586,-6.898 -27.198,1.024 -4.612,7.918 -0.885,24.564 16.481,38.25"
           style="fill:#ff9c9c;fill-opacity:1;fill-rule:evenodd;stroke:none"
           id="path93877"
           inkscape:connector-curvature="0" /><path
           d="m 174.729,376.115 c 2.184,1.88 3.255,-3.694 2.392,-12.451 -0.859,-8.758 -3.332,-17.383 -5.519,-19.264 -2.18,-1.879 -3.251,3.696 -2.389,12.454 0.864,8.757 3.332,17.381 5.516,19.261"
           style="fill:#a10000;fill-opacity:1;fill-rule:evenodd;stroke:none"
           id="path93879"
           inkscape:connector-curvature="0" /><path
           d="m 174.316,373.749 c 1.726,1.486 2.575,-2.921 1.894,-9.845 -0.684,-6.922 -2.637,-13.738 -4.363,-15.226 -1.726,-1.487 -2.571,2.922 -1.891,9.845 0.68,6.922 2.633,13.739 4.36,15.226"
           style="fill:#ff9933;fill-opacity:1;fill-rule:evenodd;stroke:none"
           id="path93881"
           inkscape:connector-curvature="0" /><path
           d="m 173.764,369.054 c 0.654,0.56 0.969,-1.103 0.713,-3.714 -0.256,-2.611 -0.995,-5.182 -1.646,-5.744 -0.651,-0.561 -0.969,1.101 -0.71,3.715 0.256,2.611 0.991,5.182 1.643,5.743"
           style="fill:#ffc891;fill-opacity:1;fill-rule:evenodd;stroke:none"
           id="path93883"
           inkscape:connector-curvature="0" /><path
           d="m 171.609,384.835 c -9.605,-31.829 -8.434,-49.226 -4.886,-51.394 3.548,-2.171 10.683,10.688 14.601,32.057 -4.455,-16.135 -9.557,-23.199 -12.648,-21.279 -3.087,1.916 -3.394,16.806 2.933,40.616"
           style="fill:#ff9c9c;fill-opacity:1;fill-rule:evenodd;stroke:none"
           id="path93885"
           inkscape:connector-curvature="0" /><path
           d="m 305.523,613.486 c 4.451,-3.842 2.323,-13.606 -4.758,-21.81 -7.081,-8.2 -16.43,-11.734 -20.885,-7.891 -4.448,3.842 -2.319,13.606 4.762,21.81 7.081,8.2 16.43,11.733 20.881,7.891"
           style="fill:#a10000;fill-opacity:1;fill-rule:evenodd;stroke:none"
           id="path93887"
           inkscape:connector-curvature="0" /><path
           d="m 303.347,611.772 c 3.518,-3.037 1.836,-10.756 -3.76,-17.24 -5.6,-6.482 -12.992,-9.277 -16.51,-6.239 -3.519,3.037 -1.833,10.757 3.767,17.241 5.596,6.484 12.984,9.277 16.503,6.238"
           style="fill:#ff9933;fill-opacity:1;fill-rule:evenodd;stroke:none"
           id="path93889"
           inkscape:connector-curvature="0" /><path
           d="m 299.418,607.63 c 1.328,-1.147 0.695,-4.058 -1.418,-6.505 -2.115,-2.444 -4.902,-3.498 -6.226,-2.354 -1.331,1.147 -0.695,4.061 1.419,6.505 2.111,2.446 4.901,3.499 6.225,2.354"
           style="fill:#ffc891;fill-opacity:1;fill-rule:evenodd;stroke:none"
           id="path93891"
           inkscape:connector-curvature="0" /><path
           d="m 306.737,632.818 c -35.222,-11.674 -45.053,-36.058 -41.29,-48.636 3.76,-12.578 22.761,-16.992 42.699,-2.067 -17.25,-7.075 -29.422,-1.331 -32.677,9.653 -3.255,10.983 6.177,29.911 31.268,41.05"
           style="fill:#ff9c9c;fill-opacity:1;fill-rule:evenodd;stroke:none"
           id="path93893"
           inkscape:connector-curvature="0" /><path
           d="m 388.824,574.109 c 4.451,-3.842 2.319,-13.608 -4.762,-21.81 -7.078,-8.202 -16.43,-11.736 -20.878,-7.893 -4.455,3.842 -2.319,13.608 4.759,21.81 7.08,8.202 16.433,11.735 20.881,7.893"
           style="fill:#a10000;fill-opacity:1;fill-rule:evenodd;stroke:none"
           id="path93895"
           inkscape:connector-curvature="0" /><path
           d="m 386.651,572.396 c 3.515,-3.039 1.829,-10.757 -3.767,-17.241 -5.596,-6.484 -12.985,-9.277 -16.503,-6.239 -3.519,3.035 -1.836,10.757 3.76,17.239 5.6,6.484 12.991,9.278 16.51,6.241"
           style="fill:#ff9933;fill-opacity:1;fill-rule:evenodd;stroke:none"
           id="path93897"
           inkscape:connector-curvature="0" /><path
           d="m 382.723,568.253 c 1.324,-1.147 0.687,-4.058 -1.423,-6.505 -2.111,-2.445 -4.898,-3.5 -6.229,-2.353 -1.324,1.144 -0.688,4.058 1.423,6.502 2.11,2.448 4.898,3.501 6.229,2.356"
           style="fill:#ffc891;fill-opacity:1;fill-rule:evenodd;stroke:none"
           id="path93899"
           inkscape:connector-curvature="0" /><path
           d="m 390.038,593.439 c -35.222,-11.674 -45.054,-36.056 -41.294,-48.636 3.764,-12.578 22.765,-16.991 42.702,-2.065 -17.245,-7.075 -29.421,-1.333 -32.676,9.651 -3.256,10.985 6.177,29.913 31.268,41.05"
           style="fill:#ff9c9c;fill-opacity:1;fill-rule:evenodd;stroke:none"
           id="path93901"
           inkscape:connector-curvature="0" /><path
           d="m 374.105,626.777 c 3.27,-3.78 0.278,-11.729 -6.686,-17.755 -6.963,-6.026 -15.259,-7.849 -18.528,-4.069 -3.27,3.778 -0.279,11.726 6.686,17.754 6.964,6.025 15.259,7.849 18.528,4.07"
           style="fill:#a10000;fill-opacity:1;fill-rule:evenodd;stroke:none"
           id="path93903"
           inkscape:connector-curvature="0" /><path
           d="m 372.064,625.602 c 2.586,-2.987 0.22,-9.27 -5.281,-14.035 -5.508,-4.763 -12.062,-6.203 -14.652,-3.216 -2.582,2.986 -0.219,9.27 5.289,14.034 5.501,4.764 12.062,6.205 14.644,3.217"
           style="fill:#ff9933;fill-opacity:1;fill-rule:evenodd;stroke:none"
           id="path93905"
           inkscape:connector-curvature="0" /><path
           d="m 368.253,622.603 c 0.974,-1.127 0.081,-3.499 -1.997,-5.294 -2.073,-1.798 -4.549,-2.341 -5.523,-1.215 -0.976,1.127 -0.08,3.497 1.994,5.294 2.077,1.798 4.55,2.341 5.526,1.215"
           style="fill:#ffc891;fill-opacity:1;fill-rule:evenodd;stroke:none"
           id="path93907"
           inkscape:connector-curvature="0" /><path
           d="m 377.5,642.884 c -31.053,-5.487 -42.318,-24.782 -40.701,-35.824 1.616,-11.04 17.051,-17.086 35.653,-6.988 -15.372,-3.828 -24.904,2.498 -26.29,12.136 -1.386,9.636 8.873,24.394 31.338,30.676"
           style="fill:#ff9c9c;fill-opacity:1;fill-rule:evenodd;stroke:none"
           id="path93909"
           inkscape:connector-curvature="0" /><path
           d="m 447.483,526.343 c 6.142,-3.735 6.105,-15.008 -0.081,-25.18 -6.187,-10.17 -16.18,-15.388 -22.322,-11.653 -6.141,3.736 -6.103,15.009 0.085,25.18 6.181,10.172 16.181,15.389 22.318,11.653"
           style="fill:#a10000;fill-opacity:1;fill-rule:evenodd;stroke:none"
           id="path93911"
           inkscape:connector-curvature="0" /><path
           d="m 445.381,524.127 c 4.853,-2.954 4.824,-11.865 -0.067,-19.904 -4.89,-8.041 -12.791,-12.165 -17.644,-9.214 -4.854,2.954 -4.824,11.865 0.066,19.904 4.891,8.041 12.79,12.165 17.645,9.214"
           style="fill:#ff9933;fill-opacity:1;fill-rule:evenodd;stroke:none"
           id="path93913"
           inkscape:connector-curvature="0" /><path
           d="m 441.848,518.942 c 1.832,-1.114 1.816,-4.476 -0.027,-7.508 -1.842,-3.035 -4.827,-4.589 -6.657,-3.475 -1.828,1.113 -1.82,4.475 0.026,7.509 1.847,3.032 4.825,4.588 6.658,3.474"
           style="fill:#ffc891;fill-opacity:1;fill-rule:evenodd;stroke:none"
           id="path93915"
           inkscape:connector-curvature="0" /><path
           d="M 444.06,548.261 C 406,530.452 400.659,501.704 408.184,488.043 c 7.523,-13.661 30.734,-16.107 50.199,3.338 -18.295,-10.25 -33.899,-5.401 -40.434,6.53 -6.537,11.933 -0.297,34.487 26.111,50.35"
           style="fill:#ff9c9c;fill-opacity:1;fill-rule:evenodd;stroke:none"
           id="path93917"
           inkscape:connector-curvature="0" /><path
           d="m 522.912,542.617 c 6.676,-4.059 7.611,-14.71 2.09,-23.785 -5.52,-9.077 -15.406,-13.144 -22.082,-9.087 -6.674,4.061 -7.611,14.711 -2.088,23.787 5.523,9.078 15.41,13.146 22.08,9.085"
           style="fill:#a10000;fill-opacity:1;fill-rule:evenodd;stroke:none"
           id="path93919"
           inkscape:connector-curvature="0" /><path
           d="m 520.93,540.703 c 5.279,-3.208 6.017,-11.628 1.65,-18.802 -4.363,-7.176 -12.18,-10.391 -17.453,-7.181 -5.275,3.209 -6.014,11.627 -1.65,18.801 4.363,7.176 12.179,10.391 17.453,7.182"
           style="fill:#ff9933;fill-opacity:1;fill-rule:evenodd;stroke:none"
           id="path93921"
           inkscape:connector-curvature="0" /><path
           d="m 517.723,536.11 c 1.99,-1.21 2.267,-4.386 0.621,-7.093 -1.645,-2.706 -4.594,-3.921 -6.582,-2.71 -1.991,1.213 -2.272,4.387 -0.623,7.093 1.646,2.707 4.593,3.921 6.584,2.71"
           style="fill:#ffc891;fill-opacity:1;fill-rule:evenodd;stroke:none"
           id="path93923"
           inkscape:connector-curvature="0" /><path
           d="m 517.48,563.625 c -37.832,-13.544 -40.873,-40.25 -31.908,-53.807 8.961,-13.558 33.182,-17.872 51.635,-1.181 -18.043,-8.105 -34.598,-2.176 -42.389,9.663 -7.789,11.84 -3.283,32.615 22.662,45.325"
           style="fill:#ff9c9c;fill-opacity:1;fill-rule:evenodd;stroke:none"
           id="path93925"
           inkscape:connector-curvature="0" /><path
           d="m 471.455,603.019 c 4.272,-5.306 1.891,-14.32 -5.326,-20.132 -7.213,-5.816 -16.527,-6.227 -20.804,-0.921 -4.272,5.305 -1.891,14.318 5.325,20.133 7.213,5.813 16.533,6.224 20.805,0.92"
           style="fill:#a10000;fill-opacity:1;fill-rule:evenodd;stroke:none"
           id="path93927"
           inkscape:connector-curvature="0" /><path
           d="m 469.26,602.034 c 3.38,-4.191 1.492,-11.318 -4.205,-15.914 -5.707,-4.596 -13.069,-4.919 -16.45,-0.727 -3.375,4.193 -1.495,11.318 4.211,15.914 5.705,4.595 13.065,4.921 16.444,0.727"
           style="fill:#ff9933;fill-opacity:1;fill-rule:evenodd;stroke:none"
           id="path93929"
           inkscape:connector-curvature="0" /><path
           d="m 465.27,599.216 c 1.277,-1.582 0.563,-4.272 -1.587,-6.004 -2.155,-1.733 -4.931,-1.858 -6.207,-0.274 -1.273,1.58 -0.564,4.268 1.587,6.002 2.154,1.734 4.931,1.858 6.207,0.276"
           style="fill:#ffc891;fill-opacity:1;fill-rule:evenodd;stroke:none"
           id="path93931"
           inkscape:connector-curvature="0" /><path
           d="m 473.211,621.862 c -35.043,0.078 -45.441,-20.93 -42.1,-34.705 3.344,-13.774 21.939,-24.479 42.019,-16.245 -17.205,-1.312 -29.03,8.449 -31.919,20.468 -2.89,12.018 6.953,27.729 32,30.482"
           style="fill:#ff9c9c;fill-opacity:1;fill-rule:evenodd;stroke:none"
           id="path93933"
           inkscape:connector-curvature="0" /><path
           d="m 451.568,639.391 c 1.27,-3.991 -3.119,-6.893 -9.798,-6.478 -6.686,0.413 -13.13,3.985 -14.399,7.974 -1.269,3.992 3.119,6.892 9.801,6.479 6.683,-0.413 13.127,-3.985 14.396,-7.975"
           style="fill:#a10000;fill-opacity:1;fill-rule:evenodd;stroke:none"
           id="path93935"
           inkscape:connector-curvature="0" /><path
           d="m 449.78,639.852 c 1.002,-3.155 -2.466,-5.447 -7.747,-5.119 -5.281,0.325 -10.38,3.147 -11.382,6.304 -1.003,3.152 2.465,5.445 7.747,5.118 5.282,-0.325 10.379,-3.149 11.382,-6.303"
           style="fill:#ff9933;fill-opacity:1;fill-rule:evenodd;stroke:none"
           id="path93937"
           inkscape:connector-curvature="0" /><path
           d="m 446.203,640.25 c 0.381,-1.19 -0.93,-2.055 -2.919,-1.931 -1.997,0.122 -3.917,1.189 -4.294,2.377 -0.381,1.191 0.93,2.056 2.919,1.933 1.997,-0.124 3.917,-1.189 4.294,-2.379"
           style="fill:#ffc891;fill-opacity:1;fill-rule:evenodd;stroke:none"
           id="path93939"
           inkscape:connector-curvature="0" /><path
           d="m 458.551,646.753 c -23.748,14.131 -37.26,9.318 -39.227,2.076 -1.965,-7.242 7.356,-19.307 23.51,-23.858 -12.073,6.357 -17.095,15.296 -15.361,21.603 1.737,6.307 13.244,9.076 31.078,0.179"
           style="fill:#ff9c9c;fill-opacity:1;fill-rule:evenodd;stroke:none"
           id="path93941"
           inkscape:connector-curvature="0" /><path
           d="m 298.658,190.561 c 3.592,-1.573 4.224,-7.377 1.411,-12.965 -2.808,-5.59 -8.002,-8.842 -11.594,-7.268 -3.595,1.572 -4.228,7.381 -1.419,12.965 2.813,5.59 8.007,8.84 11.602,7.268"
           style="fill:#a10000;fill-opacity:1;fill-rule:evenodd;stroke:none"
           id="path93943"
           inkscape:connector-curvature="0" /><path
           d="m 297.626,189.303 c 2.842,-1.244 3.343,-5.838 1.12,-10.252 -2.221,-4.418 -6.328,-6.99 -9.166,-5.746 -2.842,1.244 -3.343,5.834 -1.12,10.248 2.224,4.418 6.328,6.994 9.166,5.75"
           style="fill:#ff9933;fill-opacity:1;fill-rule:evenodd;stroke:none"
           id="path93945"
           inkscape:connector-curvature="0" /><path
           d="m 295.988,186.432 c 1.068,-0.473 1.258,-2.202 0.42,-3.866 -0.837,-1.668 -2.388,-2.638 -3.46,-2.17 -1.072,0.473 -1.261,2.202 -0.42,3.868 0.837,1.666 2.385,2.636 3.46,2.168"
           style="fill:#ffc891;fill-opacity:1;fill-rule:evenodd;stroke:none"
           id="path93947"
           inkscape:connector-curvature="0" /><path
           d="m 295.498,201.65 c -19.894,-11.33 -21.163,-26.435 -16.232,-33.041 4.93,-6.603 17.841,-6.541 27.413,4.571 -9.47,-6.313 -18.328,-4.703 -22.615,1.064 -4.287,5.772 -2.165,17.74 11.434,27.406"
           style="fill:#ff9c9c;fill-opacity:1;fill-rule:evenodd;stroke:none"
           id="path93949"
           inkscape:connector-curvature="0" /><path
           d="m 362.672,236.475 c 4.25,-2.151 3.314,-9.502 -2.089,-16.422 -5.401,-6.922 -13.225,-10.787 -17.472,-8.637 -4.242,2.147 -3.31,9.502 2.093,16.422 5.398,6.922 13.225,10.783 17.468,8.637"
           style="fill:#a10000;fill-opacity:1;fill-rule:evenodd;stroke:none"
           id="path93951"
           inkscape:connector-curvature="0" /><path
           d="m 360.938,234.932 c 3.358,-1.702 2.619,-7.514 -1.653,-12.983 -4.272,-5.47 -10.453,-8.529 -13.811,-6.828 -3.357,1.697 -2.619,7.51 1.653,12.981 4.272,5.472 10.454,8.525 13.811,6.83"
           style="fill:#ff9933;fill-opacity:1;fill-rule:evenodd;stroke:none"
           id="path93953"
           inkscape:connector-curvature="0" /><path
           d="m 357.903,231.387 c 1.265,-0.645 0.987,-2.834 -0.622,-4.899 -1.613,-2.066 -3.943,-3.218 -5.212,-2.578 -1.269,0.645 -0.987,2.838 0.625,4.903 1.61,2.062 3.943,3.214 5.209,2.574"
           style="fill:#ffc891;fill-opacity:1;fill-rule:evenodd;stroke:none"
           id="path93955"
           inkscape:connector-curvature="0" /><path
           d="m 361.904,250.607 c -29.626,-13.386 -35.895,-32.38 -31.425,-40.935 4.473,-8.555 21.469,-9.07 37.453,4.514 -14.382,-7.54 -25.545,-5.104 -29.425,2.373 -3.877,7.476 2.56,22.472 23.397,34.048"
           style="fill:#ff9c9c;fill-opacity:1;fill-rule:evenodd;stroke:none"
           id="path93957"
           inkscape:connector-curvature="0" /><path
           d="m 333.39,151.404 c 3.288,-0.736 2.772,-3.834 -1.149,-6.927 -3.921,-3.088 -9.765,-4.997 -13.053,-4.266 -3.289,0.736 -2.776,3.834 1.148,6.928 3.921,3.088 9.769,4.996 13.054,4.265"
           style="fill:#a10000;fill-opacity:1;fill-rule:evenodd;stroke:none"
           id="path93959"
           inkscape:connector-curvature="0" /><path
           d="m 332.11,150.693 c 2.6,-0.582 2.194,-3.027 -0.907,-5.47 -3.099,-2.444 -7.718,-3.955 -10.318,-3.373 -2.601,0.578 -2.191,3.029 0.907,5.472 3.101,2.444 7.721,3.949 10.318,3.371"
           style="fill:#ff9933;fill-opacity:1;fill-rule:evenodd;stroke:none"
           id="path93961"
           inkscape:connector-curvature="0" /><path
           d="m 329.9,149.1 c 0.981,-0.221 0.827,-1.143 -0.343,-2.063 -1.171,-0.922 -2.911,-1.492 -3.892,-1.273 -0.98,0.218 -0.827,1.14 0.34,2.062 1.171,0.922 2.915,1.492 3.895,1.274"
           style="fill:#ffc891;fill-opacity:1;fill-rule:evenodd;stroke:none"
           id="path93963"
           inkscape:connector-curvature="0" /><path
           d="m 332.424,157.264 c -22.168,-6.709 -26.429,-14.866 -22.797,-18.26 3.632,-3.395 16.572,-2.963 28.36,3.31 -10.735,-3.691 -19.286,-3.101 -22.439,-0.134 -3.152,2.968 1.339,9.465 16.876,15.084"
           style="fill:#ff9c9c;fill-opacity:1;fill-rule:evenodd;stroke:none"
           id="path93965"
           inkscape:connector-curvature="0" /><path
           d="m 357.295,178.258 c 2.513,-1.281 1.182,-5.078 -2.977,-8.49 -4.158,-3.409 -9.568,-5.139 -12.084,-3.862 -2.517,1.276 -1.182,5.076 2.977,8.489 4.155,3.408 9.568,5.138 12.084,3.863"
           style="fill:#a10000;fill-opacity:1;fill-rule:evenodd;stroke:none"
           id="path93967"
           inkscape:connector-curvature="0" /><path
           d="m 356.022,177.514 c 1.99,-1.008 0.937,-4.012 -2.348,-6.707 -3.291,-2.696 -7.563,-4.065 -9.553,-3.055 -1.99,1.01 -0.936,4.014 2.352,6.709 3.288,2.695 7.564,4.062 9.549,3.053"
           style="fill:#ff9933;fill-opacity:1;fill-rule:evenodd;stroke:none"
           id="path93969"
           inkscape:connector-curvature="0" /><path
           d="m 353.722,175.777 c 0.75,-0.381 0.355,-1.513 -0.889,-2.531 -1.24,-1.017 -2.853,-1.533 -3.603,-1.152 -0.749,0.385 -0.351,1.513 0.89,2.531 1.239,1.021 2.852,1.533 3.602,1.152"
           style="fill:#ffc891;fill-opacity:1;fill-rule:evenodd;stroke:none"
           id="path93971"
           inkscape:connector-curvature="0" /><path
           d="m 358.203,185.652 c -20.362,-5.888 -26.28,-15.566 -24.257,-20.189 2.022,-4.627 12.889,-5.524 24.505,0.973 -9.985,-3.399 -16.912,-1.719 -18.664,2.322 -1.748,4.043 3.88,11.629 18.416,16.894"
           style="fill:#ff9c9c;fill-opacity:1;fill-rule:evenodd;stroke:none"
           id="path93973"
           inkscape:connector-curvature="0" /><path
           d="m 425.553,205.037 c 3.453,-1.752 2.081,-7.289 -3.058,-12.369 -5.142,-5.084 -12.11,-7.783 -15.559,-6.035 -3.45,1.748 -2.078,7.285 3.061,12.369 5.143,5.08 12.11,7.783 15.556,6.035"
           style="fill:#a10000;fill-opacity:1;fill-rule:evenodd;stroke:none"
           id="path93975"
           inkscape:connector-curvature="0" /><path
           d="m 423.954,203.918 c 2.726,-1.383 1.643,-5.764 -2.421,-9.779 -4.064,-4.016 -9.568,-6.153 -12.293,-4.77 -2.728,1.383 -1.646,5.764 2.418,9.779 4.063,4.016 9.571,6.153 12.296,4.77"
           style="fill:#ff9933;fill-opacity:1;fill-rule:evenodd;stroke:none"
           id="path93977"
           inkscape:connector-curvature="0" /><path
           d="m 421.09,201.322 c 1.031,-0.519 0.623,-2.174 -0.91,-3.687 -1.534,-1.514 -3.61,-2.322 -4.642,-1.799 -1.024,0.519 -0.618,2.172 0.915,3.685 1.535,1.516 3.61,2.323 4.637,1.801"
           style="fill:#ffc891;fill-opacity:1;fill-rule:evenodd;stroke:none"
           id="path93979"
           inkscape:connector-curvature="0" /><path
           d="m 425.999,215.754 c -26.276,-9.275 -33.101,-23.471 -29.959,-30.076 3.142,-6.606 17.574,-7.487 32.252,2.334 -12.835,-5.285 -22.153,-3.119 -24.875,2.648 -2.722,5.772 3.933,16.938 22.582,25.094"
           style="fill:#ff9c9c;fill-opacity:1;fill-rule:evenodd;stroke:none"
           id="path93981"
           inkscape:connector-curvature="0" /><path
           d="m 443.479,269.549 c 4.816,-2.93 3.112,-12.274 -3.808,-20.869 -6.921,-8.596 -16.437,-13.19 -21.255,-10.26 -4.816,2.93 -3.111,12.275 3.809,20.869 6.92,8.6 16.436,13.19 21.254,10.26"
           style="fill:#a10000;fill-opacity:1;fill-rule:evenodd;stroke:none"
           id="path93983"
           inkscape:connector-curvature="0" /><path
           d="m 441.309,267.654 c 3.808,-2.314 2.462,-9.703 -3.006,-16.498 -5.472,-6.793 -12.995,-10.427 -16.803,-8.109 -3.811,2.314 -2.461,9.703 3.01,16.5 5.469,6.791 12.992,10.424 16.799,8.107"
           style="fill:#ff9933;fill-opacity:1;fill-rule:evenodd;stroke:none"
           id="path93985"
           inkscape:connector-curvature="0" /><path
           d="m 437.447,263.266 c 1.442,-0.877 0.929,-3.664 -1.134,-6.225 -2.063,-2.564 -4.901,-3.936 -6.334,-3.062 -1.442,0.875 -0.93,3.662 1.132,6.226 2.064,2.563 4.903,3.932 6.336,3.061"
           style="fill:#ffc891;fill-opacity:1;fill-rule:evenodd;stroke:none"
           id="path93987"
           inkscape:connector-curvature="0" /><path
           d="m 443.734,287.625 c -35.935,-15.785 -44.871,-39.758 -40.317,-50.877 4.558,-11.119 24.499,-12.523 44.41,4.119 -17.526,-8.99 -30.452,-5.39 -34.403,4.322 -3.943,9.715 4.857,28.575 30.31,42.436"
           style="fill:#ff9c9c;fill-opacity:1;fill-rule:evenodd;stroke:none"
           id="path93989"
           inkscape:connector-curvature="0" /><path
           d="m 466.07,346.018 c 4.559,-2.301 4.778,-11.059 0.484,-19.561 -4.29,-8.506 -11.463,-13.535 -16.021,-11.234 -4.556,2.298 -4.776,11.056 -0.482,19.56 4.291,8.504 11.463,13.533 16.019,11.235"
           style="fill:#a10000;fill-opacity:1;fill-rule:evenodd;stroke:none"
           id="path93991"
           inkscape:connector-curvature="0" /><path
           d="m 464.586,344.088 c 3.602,-1.817 3.774,-8.74 0.381,-15.461 -3.391,-6.723 -9.065,-10.699 -12.663,-8.881 -3.603,1.817 -3.775,8.74 -0.384,15.463 3.391,6.721 9.066,10.697 12.666,8.879"
           style="fill:#ff9933;fill-opacity:1;fill-rule:evenodd;stroke:none"
           id="path93993"
           inkscape:connector-curvature="0" /><path
           d="m 462.121,339.717 c 1.36,-0.686 1.426,-3.297 0.147,-5.832 -1.282,-2.537 -3.424,-4.035 -4.782,-3.352 -1.356,0.686 -1.422,3.297 -0.142,5.834 1.28,2.537 3.416,4.037 4.777,3.35"
           style="fill:#ffc891;fill-opacity:1;fill-rule:evenodd;stroke:none"
           id="path93995"
           inkscape:connector-curvature="0" /><path
           d="m 463.102,362.703 c -27.364,-17.557 -30.637,-40.402 -24.858,-50.275 5.783,-9.869 22.758,-9.498 36.527,7.504 -13.119,-9.748 -24.595,-7.51 -29.618,1.115 -5.022,8.627 -0.962,26.752 17.949,41.656"
           style="fill:#ff9c9c;fill-opacity:1;fill-rule:evenodd;stroke:none"
           id="path93997"
           inkscape:connector-curvature="0" /><path
           d="m 576.877,551.517 c 5.855,-1.409 10.885,-10.994 11.234,-21.409 0.348,-10.416 -4.109,-17.72 -9.966,-16.314 -5.852,1.408 -10.881,10.993 -11.233,21.41 -0.346,10.416 4.115,17.719 9.965,16.313"
           style="fill:#a10000;fill-opacity:1;fill-rule:evenodd;stroke:none"
           id="path93999"
           inkscape:connector-curvature="0" /><path
           d="m 576.441,549.027 c 4.627,-1.112 8.602,-8.688 8.881,-16.922 0.274,-8.234 -3.252,-14.007 -7.879,-12.894 -4.623,1.112 -8.603,8.688 -8.877,16.922 -0.277,8.234 3.252,14.008 7.875,12.894"
           style="fill:#ff9933;fill-opacity:1;fill-rule:evenodd;stroke:none"
           id="path94001"
           inkscape:connector-curvature="0" /><path
           d="m 576.361,543.61 c 1.744,-0.421 3.244,-3.279 3.35,-6.385 0.105,-3.106 -1.225,-5.284 -2.975,-4.865 -1.744,0.42 -3.244,3.279 -3.345,6.384 -0.106,3.108 1.224,5.285 2.97,4.866"
           style="fill:#ffc891;fill-opacity:1;fill-rule:evenodd;stroke:none"
           id="path94003"
           inkscape:connector-curvature="0" /><path
           d="m 564.723,569.146 c -17.916,-26.064 -8.662,-52.014 2.586,-61.453 11.242,-9.438 28.132,-4.844 32.662,17.26 -7.858,-13.962 -20.645,-14.328 -30.444,-6.073 -9.797,8.255 -15.664,29.204 -4.804,50.266"
           style="fill:#ff9c9c;fill-opacity:1;fill-rule:evenodd;stroke:none"
           id="path94005"
           inkscape:connector-curvature="0" /><path
           d="m 542.053,456.552 c 6.386,-3.886 6.332,-15.644 -0.129,-26.26 -6.455,-10.617 -16.871,-16.074 -23.258,-12.188 -6.389,3.886 -6.334,15.643 0.125,26.261 6.459,10.615 16.871,16.072 23.262,12.187"
           style="fill:#a10000;fill-opacity:1;fill-rule:evenodd;stroke:none"
           id="path94007"
           inkscape:connector-curvature="0" /><path
           d="m 539.857,454.234 c 5.053,-3.07 5.008,-12.366 -0.097,-20.757 -5.106,-8.391 -13.34,-12.706 -18.387,-9.634 -5.051,3.072 -5.008,12.366 0.1,20.758 5.105,8.392 13.338,12.705 18.384,9.633"
           style="fill:#ff9933;fill-opacity:1;fill-rule:evenodd;stroke:none"
           id="path94009"
           inkscape:connector-curvature="0" /><path
           d="m 536.172,448.823 c 1.904,-1.159 1.887,-4.665 -0.041,-7.831 -1.924,-3.165 -5.029,-4.793 -6.934,-3.634 -1.906,1.159 -1.888,4.666 0.035,7.831 1.928,3.166 5.034,4.793 6.94,3.634"
           style="fill:#ffc891;fill-opacity:1;fill-rule:evenodd;stroke:none"
           id="path94011"
           inkscape:connector-curvature="0" /><path
           d="m 538.52,479.404 c -39.659,-18.633 -45.266,-48.624 -37.45,-62.856 7.813,-14.234 31.979,-16.75 52.278,3.556 -19.071,-10.718 -35.307,-5.683 -42.096,6.75 -6.787,12.434 -0.256,35.967 27.268,52.55"
           style="fill:#ff9c9c;fill-opacity:1;fill-rule:evenodd;stroke:none"
           id="path94013"
           inkscape:connector-curvature="0" /><path
           d="m 594.4,450.541 c 6.225,-1.637 10.116,-10.526 8.682,-19.859 -1.43,-9.332 -7.641,-15.57 -13.869,-13.935 -6.233,1.635 -10.121,10.528 -8.686,19.858 1.43,9.333 7.643,15.573 13.873,13.936"
           style="fill:#a10000;fill-opacity:1;fill-rule:evenodd;stroke:none"
           id="path94015"
           inkscape:connector-curvature="0" /><path
           d="m 593.482,448.346 c 4.922,-1.293 7.998,-8.323 6.866,-15.7 -1.135,-7.375 -6.043,-12.307 -10.967,-11.014 -4.922,1.293 -7.998,8.322 -6.869,15.699 1.134,7.376 6.043,12.308 10.97,11.015"
           style="fill:#ff9933;fill-opacity:1;fill-rule:evenodd;stroke:none"
           id="path94017"
           inkscape:connector-curvature="0" /><path
           d="m 592.443,443.509 c 1.858,-0.488 3.018,-3.142 2.592,-5.923 -0.428,-2.784 -2.281,-4.644 -4.139,-4.155 -1.855,0.486 -3.015,3.137 -2.589,5.922 0.427,2.783 2.281,4.642 4.136,4.156"
           style="fill:#ffc891;fill-opacity:1;fill-rule:evenodd;stroke:none"
           id="path94019"
           inkscape:connector-curvature="0" /><path
           d="m 584.027,467.082 c -24.367,-22.136 -18.666,-45.928 -7.871,-55.09 10.789,-9.162 30.278,-6.146 39.147,13.317 -11.131,-11.971 -25.344,-11.472 -34.737,-3.46 -9.396,8.01 -12.226,27.112 3.461,45.233"
           style="fill:#ff9c9c;fill-opacity:1;fill-rule:evenodd;stroke:none"
           id="path94021"
           inkscape:connector-curvature="0" /><path
           d="m 633.699,424.969 c 3.903,-1.059 7.09,-7.593 7.121,-14.594 0.03,-6.998 -3.107,-11.813 -7.011,-10.753 -3.903,1.061 -7.088,7.593 -7.121,14.594 -0.03,6.999 3.109,11.813 7.011,10.753"
           style="fill:#a10000;fill-opacity:1;fill-rule:evenodd;stroke:none"
           id="path94023"
           inkscape:connector-curvature="0" /><path
           d="m 633.359,423.309 c 3.084,-0.838 5.604,-6.002 5.625,-11.537 0.026,-5.534 -2.457,-9.339 -5.541,-8.501 -3.082,0.839 -5.603,6.003 -5.625,11.538 -0.025,5.531 2.459,9.337 5.541,8.5"
           style="fill:#ff9933;fill-opacity:1;fill-rule:evenodd;stroke:none"
           id="path94025"
           inkscape:connector-curvature="0" /><path
           d="m 633.199,419.673 c 1.162,-0.317 2.114,-2.266 2.121,-4.353 0.012,-2.087 -0.929,-3.524 -2.091,-3.208 -1.161,0.317 -2.116,2.265 -2.122,4.353 -0.007,2.089 0.928,3.522 2.092,3.208"
           style="fill:#ffc891;fill-opacity:1;fill-rule:evenodd;stroke:none"
           id="path94027"
           inkscape:connector-curvature="0" /><path
           d="m 625.883,437.046 c -12.537,-17.147 -6.836,-34.75 0.527,-41.307 7.367,-6.559 18.793,-3.806 22.272,10.944 -5.549,-9.221 -14.145,-9.213 -20.559,-3.477 -6.412,5.733 -9.941,19.912 -2.24,33.84"
           style="fill:#ff9c9c;fill-opacity:1;fill-rule:evenodd;stroke:none"
           id="path94029"
           inkscape:connector-curvature="0" /><path
           d="m 597.738,375.259 c 5.223,-1.457 7.573,-8.095 5.246,-14.827 -2.322,-6.729 -8.441,-11.006 -13.666,-9.545 -5.222,1.457 -7.57,8.095 -5.244,14.824 2.322,6.73 8.442,11.006 13.664,9.548"
           style="fill:#a10000;fill-opacity:1;fill-rule:evenodd;stroke:none"
           id="path94031"
           inkscape:connector-curvature="0" /><path
           d="m 596.689,373.701 c 4.125,-1.152 5.985,-6.4 4.145,-11.721 -1.838,-5.32 -6.676,-8.699 -10.801,-7.546 -4.131,1.152 -5.984,6.398 -4.148,11.72 1.84,5.32 6.676,8.7 10.804,7.547"
           style="fill:#ff9933;fill-opacity:1;fill-rule:evenodd;stroke:none"
           id="path94033"
           inkscape:connector-curvature="0" /><path
           d="m 595.227,370.225 c 1.558,-0.436 2.259,-2.416 1.564,-4.424 -0.691,-2.006 -2.516,-3.281 -4.074,-2.846 -1.559,0.436 -2.256,2.414 -1.565,4.422 0.694,2.007 2.52,3.281 4.075,2.848"
           style="fill:#ffc891;fill-opacity:1;fill-rule:evenodd;stroke:none"
           id="path94035"
           inkscape:connector-curvature="0" /><path
           d="m 590.646,387.744 c -23.736,-15.067 -21.535,-32.629 -13.22,-39.76 8.312,-7.13 25.592,-5.771 35.554,8.016 -11.056,-8.238 -23.347,-7.266 -30.582,-1.033 -7.234,6.234 -7.482,20.26 8.248,32.777"
           style="fill:#ff9c9c;fill-opacity:1;fill-rule:evenodd;stroke:none"
           id="path94037"
           inkscape:connector-curvature="0" /><path
           d="m 585.094,323.166 c 3.625,-0.484 4.302,-6.107 1.515,-12.557 -2.787,-6.449 -7.988,-11.283 -11.609,-10.798 -3.625,0.484 -4.301,6.107 -1.514,12.556 2.791,6.449 7.989,11.285 11.608,10.799"
           style="fill:#a10000;fill-opacity:1;fill-rule:evenodd;stroke:none"
           id="path94039"
           inkscape:connector-curvature="0" /><path
           d="m 584.07,321.59 c 2.868,-0.383 3.403,-4.826 1.198,-9.924 -2.204,-5.1 -6.315,-8.92 -9.178,-8.537 -2.863,0.383 -3.399,4.828 -1.192,9.926 2.202,5.097 6.313,8.92 9.172,8.535"
           style="fill:#ff9933;fill-opacity:1;fill-rule:evenodd;stroke:none"
           id="path94041"
           inkscape:connector-curvature="0" /><path
           d="m 582.443,318.219 c 1.078,-0.145 1.28,-1.823 0.45,-3.744 -0.834,-1.926 -2.381,-3.368 -3.463,-3.221 -1.08,0.144 -1.285,1.82 -0.451,3.744 0.83,1.924 2.382,3.365 3.464,3.221"
           style="fill:#ffc891;fill-opacity:1;fill-rule:evenodd;stroke:none"
           id="path94043"
           inkscape:connector-curvature="0" /><path
           d="m 581.848,333.313 c -19.924,-17.387 -21.094,-32.897 -16.09,-38.014 5,-5.117 17.976,-1.141 27.523,12.898 -9.474,-9.201 -18.39,-10.279 -22.74,-5.799 -4.348,4.477 -2.301,17.104 11.307,30.915"
           style="fill:#ff9c9c;fill-opacity:1;fill-rule:evenodd;stroke:none"
           id="path94045"
           inkscape:connector-curvature="0" /><path
           d="m 540.188,373.946 c 5.189,-1.055 6.81,-8.409 3.625,-16.423 -3.186,-8.015 -9.979,-13.656 -15.165,-12.601 -5.191,1.055 -6.81,8.406 -3.625,16.422 3.186,8.015 9.979,13.657 15.165,12.602"
           style="fill:#a10000;fill-opacity:1;fill-rule:evenodd;stroke:none"
           id="path94047"
           inkscape:connector-curvature="0" /><path
           d="m 538.922,372.029 c 4.103,-0.834 5.385,-6.644 2.867,-12.982 -2.519,-6.336 -7.889,-10.795 -11.988,-9.961 -4.102,0.834 -5.385,6.648 -2.865,12.982 2.521,6.337 7.886,10.795 11.986,9.961"
           style="fill:#ff9933;fill-opacity:1;fill-rule:evenodd;stroke:none"
           id="path94049"
           inkscape:connector-curvature="0" /><path
           d="m 537.012,367.861 c 1.549,-0.314 2.031,-2.509 1.08,-4.898 -0.951,-2.393 -2.975,-4.074 -4.522,-3.76 -1.547,0.315 -2.033,2.51 -1.082,4.897 0.951,2.392 2.977,4.076 4.524,3.761"
           style="fill:#ffc891;fill-opacity:1;fill-rule:evenodd;stroke:none"
           id="path94051"
           inkscape:connector-curvature="0" /><path
           d="m 534.391,387.459 c -26.161,-20.145 -25.989,-40.074 -18.299,-47.285 7.687,-7.211 25.588,-3.596 37.453,13.441 -12.33,-10.787 -24.832,-11.127 -31.518,-4.822 -6.685,6.309 -5.273,22.402 12.364,38.666"
           style="fill:#ff9c9c;fill-opacity:1;fill-rule:evenodd;stroke:none"
           id="path94053"
           inkscape:connector-curvature="0" /><path
           d="m 527.912,306.141 c 4.617,-2.332 3.801,-10.461 -1.82,-18.159 -5.619,-7.695 -13.918,-12.039 -18.529,-9.707 -4.618,2.334 -3.801,10.461 1.82,18.161 5.623,7.693 13.918,12.039 18.529,9.705"
           style="fill:#a10000;fill-opacity:1;fill-rule:evenodd;stroke:none"
           id="path94055"
           inkscape:connector-curvature="0" /><path
           d="m 526.092,304.42 c 3.646,-1.846 3.002,-8.274 -1.442,-14.356 -4.443,-6.082 -11.002,-9.517 -14.648,-7.673 -3.647,1.847 -3.004,8.273 1.441,14.355 4.444,6.084 11.002,9.52 14.649,7.674"
           style="fill:#ff9933;fill-opacity:1;fill-rule:evenodd;stroke:none"
           id="path94057"
           inkscape:connector-curvature="0" /><path
           d="m 522.924,300.477 c 1.375,-0.698 1.133,-3.123 -0.545,-5.416 -1.676,-2.293 -4.149,-3.592 -5.527,-2.893 -1.375,0.695 -1.129,3.115 0.544,5.412 1.676,2.295 4.153,3.59 5.528,2.897"
           style="fill:#ffc891;fill-opacity:1;fill-rule:evenodd;stroke:none"
           id="path94059"
           inkscape:connector-curvature="0" /><path
           d="m 526.725,321.746 c -31.452,-15.066 -37.7,-36.107 -32.678,-45.517 5.021,-9.409 23.273,-9.817 40.08,5.339 -15.24,-8.457 -27.285,-5.875 -31.641,2.348 -4.353,8.219 2.168,24.848 24.239,37.83"
           style="fill:#ff9c9c;fill-opacity:1;fill-rule:evenodd;stroke:none"
           id="path94061"
           inkscape:connector-curvature="0" /><path
           d="m 394.2,167.855 c 3.288,-0.736 2.773,-3.834 -1.148,-6.923 -3.921,-3.092 -9.766,-5 -13.054,-4.27 -3.288,0.736 -2.776,3.834 1.148,6.924 3.921,3.092 9.77,5 13.054,4.269"
           style="fill:#a10000;fill-opacity:1;fill-rule:evenodd;stroke:none"
           id="path94063"
           inkscape:connector-curvature="0" /><path
           d="m 392.92,167.145 c 2.601,-0.581 2.195,-3.032 -0.907,-5.471 -3.098,-2.444 -7.721,-3.953 -10.318,-3.373 -2.601,0.578 -2.191,3.029 0.907,5.472 3.098,2.444 7.721,3.95 10.318,3.372"
           style="fill:#ff9933;fill-opacity:1;fill-rule:evenodd;stroke:none"
           id="path94065"
           inkscape:connector-curvature="0" /><path
           d="m 390.711,165.551 c 0.98,-0.219 0.827,-1.141 -0.344,-2.063 -1.17,-0.922 -2.911,-1.492 -3.891,-1.273 -0.981,0.219 -0.831,1.14 0.339,2.062 1.171,0.922 2.915,1.493 3.896,1.274"
           style="fill:#ffc891;fill-opacity:1;fill-rule:evenodd;stroke:none"
           id="path94067"
           inkscape:connector-curvature="0" /><path
           d="m 393.234,173.715 c -22.171,-6.709 -26.429,-14.865 -22.797,-18.26 3.632,-3.392 16.572,-2.961 28.361,3.311 -10.735,-3.69 -19.29,-3.098 -22.44,-0.135 -3.152,2.971 1.339,9.465 16.876,15.084"
           style="fill:#ff9c9c;fill-opacity:1;fill-rule:evenodd;stroke:none"
           id="path94069"
           inkscape:connector-curvature="0" /><path
           d="m 496.963,212.502 c 3.287,-0.734 2.775,-3.832 -1.149,-6.924 -3.921,-3.086 -9.765,-4.996 -13.05,-4.264 -3.291,0.731 -2.776,3.832 1.148,6.924 3.922,3.09 9.766,5 13.051,4.264"
           style="fill:#a10000;fill-opacity:1;fill-rule:evenodd;stroke:none"
           id="path94071"
           inkscape:connector-curvature="0" /><path
           d="m 495.686,211.793 c 2.597,-0.582 2.191,-3.031 -0.907,-5.471 -3.101,-2.443 -7.72,-3.955 -10.318,-3.373 -2.6,0.582 -2.195,3.031 0.906,5.471 3.1,2.443 7.719,3.955 10.319,3.373"
           style="fill:#ff9933;fill-opacity:1;fill-rule:evenodd;stroke:none"
           id="path94073"
           inkscape:connector-curvature="0" /><path
           d="m 493.473,210.201 c 0.98,-0.219 0.828,-1.144 -0.344,-2.066 -1.17,-0.922 -2.91,-1.489 -3.891,-1.272 -0.98,0.219 -0.826,1.145 0.344,2.067 1.166,0.922 2.91,1.488 3.891,1.271"
           style="fill:#ffc891;fill-opacity:1;fill-rule:evenodd;stroke:none"
           id="path94075"
           inkscape:connector-curvature="0" /><path
           d="m 495.996,218.361 c -22.168,-6.707 -26.429,-14.859 -22.793,-18.254 3.629,-3.394 16.568,-2.962 28.358,3.307 -10.733,-3.687 -19.288,-3.098 -22.44,-0.133 -3.152,2.971 1.342,9.463 16.875,15.08"
           style="fill:#ff9c9c;fill-opacity:1;fill-rule:evenodd;stroke:none"
           id="path94077"
           inkscape:connector-curvature="0" /><path
           d="m 574.645,267.783 c 2.802,0.873 2.912,-1.99 0.246,-6.398 -2.67,-4.403 -7.108,-8.682 -9.909,-9.557 -2.802,-0.873 -2.912,1.986 -0.242,6.395 2.666,4.406 7.104,8.685 9.905,9.56"
           style="fill:#a10000;fill-opacity:1;fill-rule:evenodd;stroke:none"
           id="path94079"
           inkscape:connector-curvature="0" /><path
           d="m 573.723,266.598 c 2.216,0.691 2.3,-1.573 0.195,-5.055 -2.111,-3.482 -5.619,-6.865 -7.832,-7.557 -2.217,-0.691 -2.301,1.573 -0.193,5.055 2.111,3.482 5.617,6.865 7.83,7.557"
           style="fill:#ff9933;fill-opacity:1;fill-rule:evenodd;stroke:none"
           id="path94081"
           inkscape:connector-curvature="0" /><path
           d="m 572.195,264.238 c 0.834,0.264 0.866,-0.592 0.073,-1.904 -0.797,-1.314 -2.122,-2.59 -2.955,-2.85 -0.838,-0.263 -0.872,0.592 -0.073,1.905 0.797,1.314 2.117,2.59 2.955,2.849"
           style="fill:#ffc891;fill-opacity:1;fill-rule:evenodd;stroke:none"
           id="path94083"
           inkscape:connector-curvature="0" /><path
           d="m 572.859,272.311 c -16.912,-15.776 -18.992,-24.633 -15.455,-25.86 3.534,-1.224 13.996,5.029 22.53,15.713 -8.112,-8.014 -15.178,-11.406 -18.25,-10.324 -3.073,1.082 -0.516,8.639 11.175,20.471"
           style="fill:#ff9c9c;fill-opacity:1;fill-rule:evenodd;stroke:none"
           id="path94085"
           inkscape:connector-curvature="0" /><path
           d="m 537.334,256.023 c 2.605,-1.224 0.984,-6.791 -3.621,-12.435 -4.604,-5.641 -10.445,-9.225 -13.049,-7.998 -2.605,1.224 -0.984,6.791 3.621,12.435 4.604,5.643 10.445,9.225 13.049,7.998"
           style="fill:#a10000;fill-opacity:1;fill-rule:evenodd;stroke:none"
           id="path94087"
           inkscape:connector-curvature="0" /><path
           d="m 535.945,254.719 c 2.059,-0.971 0.78,-5.369 -2.861,-9.828 -3.639,-4.463 -8.258,-7.293 -10.318,-6.328 -2.055,0.972 -0.776,5.369 2.865,9.832 3.639,4.46 8.258,7.293 10.314,6.324"
           style="fill:#ff9933;fill-opacity:1;fill-rule:evenodd;stroke:none"
           id="path94089"
           inkscape:connector-curvature="0" /><path
           d="m 533.406,251.803 c 0.776,-0.365 0.293,-2.026 -1.082,-3.709 -1.373,-1.682 -3.117,-2.75 -3.892,-2.385 -0.776,0.367 -0.293,2.027 1.08,3.709 1.375,1.684 3.115,2.75 3.894,2.385"
           style="fill:#ffc891;fill-opacity:1;fill-rule:evenodd;stroke:none"
           id="path94091"
           inkscape:connector-curvature="0" /><path
           d="m 538.703,266.496 c -21.961,-12.623 -28.775,-27.348 -26.873,-33.332 1.899,-5.984 13.399,-4.853 26.098,6.701 -10.797,-6.898 -18.073,-6.08 -19.711,-0.849 -1.639,5.23 4.75,16.994 20.486,27.48"
           style="fill:#ff9c9c;fill-opacity:1;fill-rule:evenodd;stroke:none"
           id="path94093"
           inkscape:connector-curvature="0" /><path
           d="m 479.105,239.975 c 2.811,-1.711 1.815,-7.168 -2.226,-12.196 -4.041,-5.017 -9.602,-7.701 -12.418,-5.99 -2.809,1.711 -1.814,7.168 2.225,12.195 4.044,5.018 9.605,7.702 12.419,5.991"
           style="fill:#a10000;fill-opacity:1;fill-rule:evenodd;stroke:none"
           id="path94095"
           inkscape:connector-curvature="0" /><path
           d="m 477.838,238.867 c 2.223,-1.351 1.437,-5.666 -1.76,-9.638 -3.197,-3.969 -7.59,-6.09 -9.813,-4.737 -2.228,1.354 -1.438,5.67 1.758,9.637 3.194,3.973 7.586,6.09 9.815,4.738"
           style="fill:#ff9933;fill-opacity:1;fill-rule:evenodd;stroke:none"
           id="path94097"
           inkscape:connector-curvature="0" /><path
           d="m 475.58,236.303 c 0.842,-0.512 0.541,-2.137 -0.662,-3.637 -1.203,-1.498 -2.863,-2.297 -3.705,-1.785 -0.834,0.506 -0.541,2.137 0.666,3.633 1.207,1.5 2.863,2.3 3.701,1.789"
           style="fill:#ffc891;fill-opacity:1;fill-rule:evenodd;stroke:none"
           id="path94099"
           inkscape:connector-curvature="0" /><path
           d="m 479.252,250.529 c -20.994,-9.216 -26.209,-23.22 -23.551,-29.716 2.663,-6.493 14.313,-7.311 25.944,2.406 -10.241,-5.252 -17.791,-3.149 -20.094,2.523 -2.309,5.678 2.83,16.694 17.701,24.787"
           style="fill:#ff9c9c;fill-opacity:1;fill-rule:evenodd;stroke:none"
           id="path94101"
           inkscape:connector-curvature="0" /><path
           d="m 535.146,597.261 c 4.174,-2.54 5.905,-7.321 3.86,-10.68 -2.045,-3.359 -7.084,-4.023 -11.258,-1.484 -4.174,2.538 -5.902,7.32 -3.859,10.679 2.041,3.36 7.086,4.024 11.257,1.485"
           style="fill:#a10000;fill-opacity:1;fill-rule:evenodd;stroke:none"
           id="path94103"
           inkscape:connector-curvature="0" /><path
           d="m 534.258,596.645 c 3.299,-2.006 4.668,-5.787 3.055,-8.442 -1.618,-2.655 -5.604,-3.18 -8.903,-1.174 -3.299,2.008 -4.668,5.786 -3.051,8.442 1.618,2.657 5.6,3.18 8.899,1.174"
           style="fill:#ff9933;fill-opacity:1;fill-rule:evenodd;stroke:none"
           id="path94105"
           inkscape:connector-curvature="0" /><path
           d="m 532.996,594.991 c 1.244,-0.755 1.76,-2.181 1.149,-3.183 -0.608,-1.002 -2.11,-1.2 -3.358,-0.443 -1.244,0.757 -1.76,2.182 -1.148,3.184 0.607,1.003 2.111,1.2 3.357,0.442"
           style="fill:#ffc891;fill-opacity:1;fill-rule:evenodd;stroke:none"
           id="path94107"
           inkscape:connector-curvature="0" /><path
           d="m 529.742,607.1 c -19.517,-1.657 -18.185,-13.036 -11.66,-20.005 6.523,-6.969 20.496,-11.611 28.871,-6.373 -9.121,-1.514 -19.008,2.966 -24.683,9.049 -5.678,6.081 -5.528,14.692 7.472,17.329"
           style="fill:#ff9c9c;fill-opacity:1;fill-rule:evenodd;stroke:none"
           id="path94109"
           inkscape:connector-curvature="0" /></g></g></g></svg>